<svg xmlns="http://www.w3.org/2000/svg" width="17.074" height="15" viewBox="0 0 17.074 15">
  <path id="shopping-cart" d="M2.75,13.25a1.879,1.879,0,0,0,0,3.75,1.879,1.879,0,0,0,0-3.75Zm0,2.679a.805.805,0,0,1,0-1.607.805.805,0,0,1,0,1.607Zm8.5-2.679a1.879,1.879,0,0,0,0,3.75,1.879,1.879,0,0,0,0-3.75Zm0,2.679a.805.805,0,1,1,.75-.8A.779.779,0,0,1,11.25,15.929ZM13.371,2l-.3,2.143H-.074l1.118,8.61H12.957l1.038-8,.236-1.685H17V2H13.371Zm-.445,3.214-.139,1.071H1.213L1.074,5.214ZM1.914,11.681,1.353,7.357H12.648l-.561,4.324H1.914Z" transform="translate(0.074 -2)" fill="#fff"/>
</svg>
